<?xml version="1.0" standalone="no"?>
<!DOCTYPE svg PUBLIC "-//W3C//DTD SVG 20010904//EN"
 "http://www.w3.org/TR/2001/REC-SVG-20010904/DTD/svg10.dtd">
<svg version="1.0" xmlns="http://www.w3.org/2000/svg"
 width="2000.000000pt" height="2000.000000pt" viewBox="0 0 2000.000000 2000.000000"
 preserveAspectRatio="xMidYMid meet">

<g transform="translate(0.000000,2000.000000) scale(0.100000,-0.100000)"
fill="#000000" stroke="none">
<path d="M16275 17329 c-235 -20 -5044 -477 -8365 -794 -4980 -476 -4684 -446
-4676 -474 9 -30 1185 -4306 1256 -4566 39 -143 194 -717 345 -1275 151 -558
312 -1154 358 -1325 47 -170 126 -479 177 -685 126 -514 157 -628 181 -661 26
-36 37 -37 32 -1 -6 48 -683 7306 -683 7323 0 12 14 17 63 22 34 3 274 29 532
56 1913 204 3168 319 9491 874 l712 62 8 -195 c10 -274 -10 -1256 -46 -2170
-91 -2356 -185 -4961 -210 -5835 -11 -385 -25 -821 -30 -970 -5 -148 -10 -340
-10 -425 0 -309 19 -190 169 1050 158 1311 608 5005 816 6700 148 1212 184
1492 281 2194 35 259 73 543 84 630 19 156 26 382 14 445 l-6 31 -197 -1
c-108 -1 -241 -6 -296 -10z"/>
<path d="M14217 15346 c-505 -30 -871 -56 -877 -62 -20 -20 6 -410 76 -1152
l7 -72 121 5 c67 3 348 12 626 20 489 15 802 28 943 41 l69 6 -6 67 c-3 36
-20 293 -36 571 -33 558 -38 631 -48 629 -4 -1 -397 -25 -875 -53z"/>
<path d="M7870 14928 c-230 -18 -458 -150 -604 -350 -43 -60 -104 -196 -126
-283 -29 -111 -29 -289 0 -400 151 -590 850 -831 1330 -460 205 159 319 394
320 658 0 223 -78 422 -228 580 -180 189 -419 277 -692 255z m-114 -468 c186
-264 332 -458 354 -470 10 -6 59 -10 108 -10 111 0 186 -14 285 -52 177 -68
184 -144 17 -182 -133 -31 -506 -47 -583 -25 -35 9 -47 23 -115 129 -42 65
-97 154 -122 196 -45 77 -72 105 -87 91 -4 -4 -9 -91 -11 -193 -4 -180 -5
-186 -29 -215 -31 -36 -43 -36 -78 -2 -25 26 -27 32 -21 83 8 73 -9 295 -30
373 -8 34 -29 95 -46 135 -35 84 -34 109 7 201 28 61 72 110 140 156 l40 27
17 -24 c9 -12 79 -111 154 -218z"/>
<path d="M6100 14365 c-305 -85 -503 -358 -488 -670 9 -172 68 -304 193 -430
122 -123 277 -187 455 -188 111 -1 178 13 277 59 224 101 366 311 380 559 16
289 -157 550 -436 653 -86 32 -294 41 -381 17z m113 -357 c12 -6 41 -28 65
-48 93 -82 260 -140 449 -156 91 -8 143 -31 143 -64 0 -29 -31 -89 -49 -94 -9
-3 -63 -15 -121 -28 -90 -19 -135 -23 -315 -23 -181 0 -213 2 -235 17 -21 14
-33 15 -69 7 -24 -5 -51 -19 -60 -30 -15 -19 -21 -19 -171 -8 -85 6 -158 14
-162 18 -5 4 -13 34 -19 66 -12 64 -7 153 12 229 10 42 14 46 43 46 17 0 69
-8 115 -17 70 -13 96 -14 149 -5 58 10 69 15 107 56 44 49 75 57 118 34z"/>
<path d="M10440 13963 c-381 -37 -655 -94 -963 -200 -874 -300 -1607 -899
-2080 -1700 -514 -869 -662 -1919 -412 -2913 362 -1438 1542 -2556 2998 -2839
283 -55 402 -66 747 -66 329 0 410 6 668 50 373 65 706 174 1052 346 387 193
680 401 988 704 648 634 1037 1436 1144 2360 20 171 17 667 -5 845 -92 746
-377 1419 -845 2000 -100 123 -339 369 -469 481 -247 213 -499 380 -803 533
-452 226 -893 350 -1400 396 -105 9 -536 12 -620 3z m485 -733 c687 -47 1298
-290 1815 -722 591 -495 972 -1173 1091 -1943 30 -199 38 -593 14 -795 -84
-732 -383 -1357 -895 -1870 -171 -172 -290 -271 -473 -394 -430 -290 -903
-460 -1432 -517 -142 -15 -490 -15 -625 0 -618 69 -1159 289 -1633 663 -132
104 -401 374 -507 508 -634 799 -837 1852 -549 2837 130 445 385 891 704 1233
599 642 1386 990 2275 1008 36 1 133 -3 215 -8z"/>
<path d="M10410 12805 c-597 -72 -1140 -328 -1568 -739 -340 -327 -599 -751
-727 -1192 -123 -422 -143 -907 -54 -1323 22 -100 61 -250 79 -296 l11 -28
127 6 c144 6 230 25 385 87 395 158 758 482 1302 1160 157 196 341 439 490
645 225 312 435 520 715 707 206 137 495 255 795 324 137 31 398 45 470 25 21
-6 41 -9 43 -7 7 7 -142 120 -268 204 -145 97 -395 222 -560 282 -200 73 -438
127 -660 150 -130 13 -452 11 -580 -5z"/>
<path d="M12459 12041 c-211 -217 -369 -481 -434 -723 -39 -145 -49 -260 -42
-487 7 -232 15 -316 92 -941 94 -763 111 -981 101 -1285 -6 -204 -18 -302 -54
-435 -10 -41 -27 -109 -36 -152 -30 -134 -99 -254 -201 -351 l-40 -39 83 42
c490 243 909 644 1175 1126 154 277 258 587 308 915 30 191 32 570 6 754 -59
400 -186 752 -390 1080 -108 173 -319 431 -440 536 l-48 41 -80 -81z"/>
<path d="M4233 5735 c-166 -46 -269 -140 -309 -279 -35 -126 0 -250 95 -339
57 -52 91 -71 343 -190 196 -93 267 -170 244 -262 -11 -45 -73 -103 -134 -125
-83 -31 -224 -26 -302 11 -56 27 -100 63 -135 111 l-20 27 -87 -62 c-48 -34
-87 -65 -88 -69 0 -4 21 -35 48 -69 57 -77 146 -138 245 -170 102 -34 289 -34
393 -2 192 61 305 203 306 383 0 192 -109 308 -414 439 -120 51 -203 92 -228
113 -54 45 -66 121 -27 179 89 132 316 130 416 -3 l34 -45 78 54 c46 32 79 61
79 71 0 30 -67 118 -119 156 -27 20 -76 46 -108 57 -76 28 -237 35 -310 14z"/>
<path d="M6895 5735 c-249 -56 -455 -236 -538 -470 -70 -198 -58 -382 36 -575
34 -70 58 -102 136 -180 143 -143 281 -206 471 -217 217 -13 411 63 565 221
82 84 127 157 168 269 42 115 49 284 18 407 -84 334 -376 562 -716 559 -44 0
-107 -7 -140 -14z m264 -226 c108 -25 218 -98 286 -190 149 -203 129 -476 -48
-653 -202 -201 -524 -196 -717 11 -33 35 -71 86 -85 113 -74 145 -73 324 3
464 61 114 190 218 311 252 56 15 190 17 250 3z"/>
<path d="M9388 5734 c-129 -31 -228 -106 -280 -212 -60 -122 -49 -269 28 -366
46 -58 132 -112 307 -192 257 -118 317 -169 317 -272 0 -49 -3 -56 -44 -97
-31 -30 -60 -48 -97 -59 -59 -18 -186 -21 -239 -6 -57 16 -142 72 -176 117
l-31 41 -83 -59 c-46 -32 -85 -61 -88 -64 -10 -10 50 -95 96 -136 100 -90 237
-139 386 -139 310 1 520 182 504 435 -12 190 -129 297 -483 444 -131 55 -191
98 -204 149 -27 100 65 197 198 209 96 9 192 -32 240 -103 13 -19 28 -34 33
-34 16 0 158 103 158 115 0 21 -56 100 -98 137 -106 96 -281 132 -444 92z"/>
<path d="M11254 5736 c-351 -80 -605 -410 -581 -756 8 -111 28 -186 79 -290
34 -69 59 -102 133 -175 103 -103 168 -145 292 -187 111 -39 251 -48 362 -24
99 21 226 85 296 149 l57 52 -57 80 c-32 44 -61 84 -65 88 -4 5 -34 -13 -66
-39 -33 -26 -88 -61 -124 -78 -61 -29 -72 -31 -185 -31 -119 0 -121 0 -200 39
-93 45 -193 140 -237 222 -104 194 -65 431 96 589 186 183 449 194 653 28 30
-25 56 -43 58 -41 2 2 31 41 65 87 l63 85 -49 43 c-122 106 -268 163 -429 169
-63 2 -123 -2 -161 -10z"/>
<path d="M14757 5743 c-9 -15 -657 -1424 -657 -1429 0 -2 55 -3 121 -2 l121 3
48 105 47 105 333 0 332 0 48 -105 47 -105 121 -3 c67 -1 122 -1 122 1 0 15
-660 1432 -668 1435 -6 2 -12 -1 -15 -5z m131 -741 c61 -137 114 -256 118
-265 6 -16 -14 -17 -235 -17 -133 0 -241 3 -241 6 0 14 234 524 240 524 3 0
57 -112 118 -248z"/>
<path d="M15610 5030 l0 -721 113 3 112 3 5 452 5 451 444 -464 c244 -255 448
-464 453 -464 4 0 8 324 8 720 l0 720 -115 0 -115 0 -2 -455 -3 -455 -444 465
c-245 256 -448 465 -453 465 -4 0 -8 -324 -8 -720z"/>
<path d="M5040 5020 l0 -710 110 0 110 0 0 300 0 300 305 0 305 0 0 -300 0
-300 110 0 110 0 0 710 0 710 -110 0 -110 0 0 -300 0 -300 -305 0 -305 0 0
300 0 300 -110 0 -110 0 0 -710z"/>
<path d="M7997 5723 c-4 -3 -7 -323 -7 -710 l0 -703 420 0 420 0 0 115 0 115
-305 0 -305 0 0 190 0 190 265 0 265 0 0 115 0 115 -265 0 -265 0 0 175 0 175
305 0 305 0 0 115 0 115 -413 0 c-228 0 -417 -3 -420 -7z"/>
<path d="M12087 5724 c-4 -4 -7 -324 -7 -711 l0 -703 428 2 427 3 0 110 0 110
-312 3 -313 2 -2 593 -3 592 -106 3 c-58 1 -108 -1 -112 -4z"/>
<path d="M13130 5020 l0 -710 420 0 420 0 0 115 0 115 -310 0 -310 0 0 190 0
190 268 2 267 3 0 110 0 110 -267 3 -268 2 0 175 0 175 310 0 310 0 0 115 0
115 -420 0 -420 0 0 -710z"/>
<path d="M6301 3680 c-17 -28 -31 -53 -31 -56 0 -3 12 -4 27 -2 18 2 38 17 60
46 40 53 41 62 4 62 -24 0 -35 -8 -60 -50z"/>
<path d="M5640 3591 c-71 -23 -131 -74 -166 -141 -26 -50 -25 -153 3 -205 64
-120 209 -173 319 -117 60 31 70 46 50 77 -20 30 -30 31 -62 6 -90 -71 -241 5
-251 127 -5 58 17 103 69 145 52 42 109 46 171 13 26 -14 50 -26 51 -26 2 0
11 12 21 26 13 20 14 28 4 40 -36 43 -152 74 -209 55z"/>
<path d="M6450 3357 l0 -247 40 0 40 0 0 152 0 153 149 -155 150 -155 0 243 1
242 -40 0 -40 0 0 -147 -1 -148 -149 154 -150 154 0 -246z"/>
<path d="M7244 3584 c-96 -34 -164 -128 -164 -227 0 -128 75 -222 196 -247 63
-13 140 4 186 42 l28 23 -21 32 -21 32 -41 -27 c-109 -72 -247 6 -247 140 0
70 37 127 99 152 56 22 79 20 137 -9 l49 -25 24 27 23 27 -28 23 c-36 28 -107
53 -148 52 -17 0 -50 -7 -72 -15z"/>
<path d="M7631 3372 c-58 -125 -108 -235 -113 -244 -8 -16 -3 -18 36 -18 42 0
45 2 56 35 l12 35 114 0 114 0 17 -35 c15 -31 21 -35 55 -35 21 0 38 4 38 8 0
11 -209 465 -218 474 -4 4 -54 -95 -111 -220z m151 -37 l37 -85 -81 0 c-60 0
-79 3 -75 13 29 69 71 157 76 157 3 0 23 -39 43 -85z"/>
<path d="M8657 3529 c-19 -41 -68 -149 -110 -240 -43 -91 -77 -169 -77 -172 0
-4 18 -7 40 -7 36 0 41 3 54 35 l15 35 114 0 113 0 17 -35 c15 -32 21 -35 58
-35 29 0 40 4 36 13 -15 35 -219 472 -222 476 -3 2 -20 -30 -38 -70z m110
-276 c-3 -2 -38 -3 -79 -1 l-75 3 40 85 40 85 39 -84 c21 -46 37 -85 35 -88z"/>
<path d="M9557 3573 c-32 -61 -207 -446 -207 -454 0 -5 17 -9 38 -9 34 0 40 4
55 35 l17 35 113 0 113 0 13 -35 c11 -33 15 -35 56 -35 l44 0 -33 73 c-115
252 -189 412 -192 415 -1 2 -9 -9 -17 -25z m56 -235 l36 -83 -40 -3 c-21 -2
-56 -2 -78 0 l-39 3 37 82 c20 46 39 83 42 83 3 0 22 -37 42 -82z"/>
<path d="M10187 3586 c-149 -55 -216 -211 -148 -344 100 -197 393 -172 455 39
20 65 20 73 0 138 -38 129 -189 211 -307 167z m139 -82 c75 -36 117 -122 95
-196 -39 -128 -191 -164 -283 -67 -64 67 -62 162 5 227 55 53 120 66 183 36z"/>
<path d="M10833 3581 c-70 -32 -98 -122 -56 -180 11 -14 59 -46 108 -71 68
-34 92 -51 99 -72 26 -74 -108 -104 -174 -38 l-20 20 -30 -21 c-23 -18 -27
-26 -20 -40 26 -47 123 -85 188 -73 88 16 137 64 137 134 0 67 -25 97 -123
145 -45 22 -89 48 -98 57 -16 16 -16 19 0 42 28 44 96 47 134 6 18 -19 18 -19
46 3 l28 22 -23 29 c-44 56 -122 70 -196 37z"/>
<path d="M12271 3583 c-58 -21 -133 -95 -149 -149 -38 -128 19 -261 132 -308
82 -34 178 -24 238 26 l28 23 -21 33 c-19 30 -23 31 -38 18 -32 -29 -93 -48
-130 -41 -87 16 -141 82 -141 173 0 63 40 122 99 146 56 22 79 20 137 -9 l49
-25 24 27 23 27 -28 23 c-36 28 -107 53 -148 52 -17 0 -51 -8 -75 -16z"/>
<path d="M12688 3432 c-42 -92 -92 -202 -112 -244 l-35 -78 44 0 c41 0 45 2
56 35 l13 35 113 0 113 0 17 -35 c15 -31 21 -35 55 -35 21 0 38 4 38 9 0 12
-208 463 -218 473 -4 4 -42 -68 -84 -160z m123 -95 l37 -82 -75 -3 c-42 -2
-77 -1 -79 1 -5 5 69 167 76 167 3 0 21 -37 41 -83z"/>
<path d="M13554 3586 c-221 -72 -230 -386 -13 -463 49 -18 58 -26 39 -38 -17
-11 -11 -35 9 -35 11 0 22 -4 26 -9 7 -12 -26 -31 -54 -31 -22 0 -27 -16 -12
-39 20 -32 121 18 121 60 0 31 -12 49 -32 49 -34 0 -9 18 47 35 30 8 66 26 81
39 l28 23 -23 32 c-21 29 -25 31 -40 17 -57 -51 -139 -55 -199 -9 -68 51 -92
136 -58 202 22 42 81 89 122 97 41 7 105 -9 124 -31 18 -21 32 -18 53 11 22
30 13 45 -46 75 -50 26 -121 32 -173 15z"/>
<path d="M14036 3592 c-13 -22 -216 -466 -216 -474 0 -4 17 -8 38 -8 34 0 40
4 55 35 l17 35 114 0 114 0 12 -35 c11 -33 14 -35 56 -35 l44 0 -24 53 c-55
122 -198 432 -201 435 -2 2 -6 -1 -9 -6z m80 -339 c-2 -2 -37 -3 -79 -1 l-75
3 40 85 40 85 39 -84 c22 -46 38 -86 35 -88z"/>
<path d="M14940 3591 c-113 -37 -183 -128 -183 -242 -1 -134 108 -242 243
-242 139 0 244 105 244 243 0 100 -50 182 -138 224 -43 20 -129 29 -166 17z
m123 -85 c18 -7 47 -29 64 -49 59 -67 56 -156 -6 -218 -70 -70 -170 -72 -237
-5 -126 126 15 341 179 272z"/>
<path d="M4896 3360 c-58 -126 -106 -235 -106 -240 0 -6 17 -10 38 -10 34 0
40 4 55 35 l17 35 110 0 110 0 17 -35 c15 -31 21 -35 55 -35 21 0 38 4 38 10
0 16 -209 465 -218 468 -5 1 -57 -101 -116 -228z m156 -22 l37 -83 -40 -3
c-21 -2 -56 -2 -78 0 l-38 3 36 83 c19 45 38 82 41 82 3 0 22 -37 42 -82z"/>
<path d="M5930 3350 l0 -241 143 3 142 3 3 38 3 37 -110 0 -111 0 0 200 0 200
-35 0 -35 0 0 -240z"/>
<path d="M6280 3349 l0 -240 38 3 37 3 3 238 2 237 -40 0 -40 0 0 -241z"/>
<path d="M6930 3349 l0 -240 38 3 37 3 3 238 2 237 -40 0 -40 0 0 -241z"/>
<path d="M8200 3350 l0 -240 40 0 40 0 0 85 0 85 66 0 c116 0 179 53 179 152
0 69 -22 103 -85 136 -37 18 -60 22 -142 22 l-98 0 0 -240z m224 139 c28 -22
35 -64 16 -99 -12 -23 -61 -40 -116 -40 l-44 0 0 80 0 80 59 0 c44 0 65 -5 85
-21z"/>
<path d="M8972 3353 l3 -238 38 -3 37 -3 0 90 0 91 33 0 c29 -1 37 -8 92 -90
l60 -89 48 -1 c55 0 56 -7 -18 95 -28 39 -54 75 -58 81 -4 7 11 29 32 51 53
53 61 97 30 160 -35 71 -85 93 -206 93 l-93 0 2 -237z m193 151 c8 -4 22 -19
30 -35 30 -57 -17 -109 -97 -109 l-48 0 0 75 0 75 49 0 c27 0 57 -3 66 -6z"/>
<path d="M11132 3353 l3 -238 143 -3 142 -3 0 41 0 40 -105 0 -105 0 0 65 0
65 90 0 90 0 0 40 0 40 -90 0 -90 0 0 55 0 55 105 0 105 0 0 40 0 40 -145 0
-145 0 2 -237z"/>
<path d="M11502 3402 l3 -189 28 -36 c71 -93 200 -98 276 -12 43 49 51 91 51
268 l0 157 -40 0 -40 0 0 -162 c0 -142 -3 -167 -19 -194 -36 -59 -110 -68
-156 -19 -29 32 -35 70 -35 238 l0 137 -36 0 -35 0 3 -188z"/>
<path d="M13050 3350 l0 -240 145 0 145 0 0 40 0 40 -105 0 -105 0 0 200 0
200 -40 0 -40 0 0 -240z"/>
<path d="M14322 3354 l3 -239 83 -3 c160 -6 253 45 286 158 20 67 20 93 1 158
-19 62 -54 106 -109 134 -33 18 -63 23 -154 26 l-112 4 2 -238z m226 137 c52
-27 76 -73 77 -143 0 -96 -55 -150 -160 -156 l-65 -4 0 161 0 161 55 0 c35 0
70 -7 93 -19z"/>
</g>
</svg>
